<svg width="73" height="58" viewBox="0 0 73 58" fill="none" xmlns="http://www.w3.org/2000/svg">
<path d="M69.7205 13.8801L37.4688 0.431532C36.5443 0.0488643 35.5053 0.0488643 34.5801 0.431532L2.33414 13.8801C1.41798 14.2628 0.690659 14.9923 0.311824 15.9101C-0.0674829 16.8274 -0.0674829 17.8581 0.311824 18.7753C0.690573 19.6932 1.41792 20.4228 2.33414 20.8054L4.4301 21.6791V42.5901H4.32675C3.22065 42.5901 2.3246 43.4867 2.3246 44.5922C2.3246 45.6983 3.22065 46.5944 4.32675 46.5944H4.4301V49.7552L3.84633 49.7558C2.74023 49.7558 1.84418 50.6524 1.84418 51.7579C1.84418 52.8635 2.74023 53.7601 3.84633 53.7601H4.4301V55.2561C4.4301 56.3616 5.32614 57.2582 6.43225 57.2582C7.53779 57.2582 8.43439 56.3616 8.43439 55.2561V53.7601H9.01816C10.1237 53.7601 11.0203 52.8635 11.0203 51.7579C11.0203 50.6524 10.1237 49.7558 9.01816 49.7558H8.43439V46.5945H8.53774C9.64328 46.5945 10.5399 45.6985 10.5399 44.5924C10.5399 43.4868 9.64328 42.5902 8.53774 42.5902H8.43439V23.3496L12.3683 24.9903V38.3545C12.3633 40.2852 13.3437 42.0845 14.9683 43.1275C21.2328 47.1262 28.5302 49.2043 35.9608 49.1066H36.0859C43.5186 49.2055 50.8174 47.1268 57.0841 43.1275C58.7092 42.0851 59.6896 40.2852 59.6852 38.3545V24.9903L69.72 20.805C70.6361 20.4229 71.3635 19.6933 71.7429 18.7755C72.1222 17.8583 72.1222 16.8282 71.7429 15.9103C71.3636 14.993 70.6362 14.2628 69.72 13.8809L69.7205 13.8801ZM55.6815 38.3535C55.6832 38.9222 55.3949 39.4529 54.9156 39.7607C49.3053 43.365 42.7518 45.2235 36.084 45.1013H35.9639C29.2983 45.2225 22.7465 43.364 17.138 39.7607C16.6592 39.4529 16.371 38.9222 16.3726 38.3535V26.6591L34.5864 34.2532C35.5093 34.6342 36.5461 34.6342 37.469 34.2532L55.6814 26.6591L55.6815 38.3535ZM36.0276 30.5169L4.4351 17.3427L36.0276 4.16782L67.62 17.3427L36.0276 30.5169Z" fill="#00FFFA"/>
</svg>
