<svg width="72" height="73" viewBox="0 0 72 73" fill="none" xmlns="http://www.w3.org/2000/svg">
<path fill-rule="evenodd" clip-rule="evenodd" d="M66.698 19.3847H72V24.277H66.698V47.7814H72V52.6737H66.698V58.2038C66.698 62.777 62.8807 66.6054 58.3213 66.6054H52.5952V72.0293H47.7174V66.6054H24.2825V72.0293H19.4047V66.6054H13.5727C9.01309 66.6054 5.19602 62.7768 5.19602 58.2038V52.6737H0V47.7814H5.19602V24.277H0V19.3847H5.19602V13.4293C5.19602 8.85615 9.01325 5.02776 13.5727 5.02776H19.4047V0.0292969H24.2825V5.02776H47.7174V0.0292969H52.5952V5.02776H58.3213C62.8809 5.02776 66.698 8.85632 66.698 13.4293V19.3847ZM25.0246 19.1717H47.0802C50.0491 19.1717 52.5939 21.6179 52.5939 24.7018V46.8228C52.5939 49.8006 50.155 52.3529 47.0802 52.3529H25.0246C22.0556 52.3529 19.5108 49.9068 19.5108 46.8228V24.7018C19.5108 21.724 21.9497 19.1717 25.0246 19.1717ZM47.0802 24.3832H25.0246C24.9187 24.3832 24.8122 24.4893 24.8122 24.5962V46.7172C24.8122 46.8234 24.9181 46.9302 25.0246 46.9302H47.0802C47.186 46.9302 47.2925 46.824 47.2925 46.7172V24.5962C47.2925 24.49 47.1867 24.3832 47.0802 24.3832ZM58.32 10.1322H13.7838C11.9814 10.1322 10.6025 11.5146 10.6025 13.323V57.9913C10.6025 59.799 11.9807 61.182 13.7838 61.182H58.32C60.1223 61.182 61.5013 59.7997 61.5013 57.9913V13.323C61.5013 11.5152 60.123 10.1322 58.32 10.1322Z" fill="#00FFFA"/>
</svg>
