<svg width="76" height="77" viewBox="0 0 76 77" fill="none" xmlns="http://www.w3.org/2000/svg">
<g clip-path="url(#clip0_333_216)">
<path d="M67.6198 28.5586C64.4134 28.5586 61.8013 30.8149 61.3261 33.7835L43.8695 33.784C43.9881 33.1903 43.9881 32.5966 43.9881 32.1215C43.9881 31.5278 43.9881 31.0527 43.8695 30.459L62.5129 20.128C63.4631 21.3154 64.8879 22.147 66.6689 22.147C69.5189 22.147 71.7751 19.8908 71.7751 17.0408C71.7751 14.1909 69.5189 11.9347 66.6689 11.9347C63.819 11.9347 61.5628 14.1909 61.5628 17.0408C61.5628 17.3973 61.5628 17.6346 61.6814 17.991L43.2759 28.0836C43.0386 27.3713 42.6821 26.6583 42.3257 26.0646L48.6194 13.0023C48.9758 13.1209 49.4503 13.1209 49.8068 13.1209C52.6567 13.1209 54.9129 10.8647 54.9129 8.01479C54.9129 5.16487 52.6567 2.90865 49.8068 2.90865C46.9569 2.90865 44.7007 5.16487 44.7007 8.01479C44.7007 9.55864 45.413 10.9834 46.6004 11.9335L40.9004 23.927C39.0007 21.908 36.388 20.4834 33.4194 20.2455V10.1523C35.6756 9.67725 37.4568 7.53964 37.4568 5.16473C37.4568 2.31482 35.2006 0.0585938 32.3507 0.0585938C29.5008 0.0585938 27.2446 2.31482 27.2446 5.16473C27.2446 7.53964 28.9071 9.55864 31.1633 10.1523V20.3648C29.8572 20.4834 28.6699 20.8398 27.4818 21.3149L19.1691 13.3587C19.6442 12.5277 20.0001 11.5775 20.0001 10.6274C20.0001 7.77744 17.7439 5.52122 14.894 5.52122C12.044 5.52122 9.78781 7.77744 9.78781 10.6274C9.78781 13.4773 12.044 15.7335 14.894 15.7335C15.8441 15.7335 16.7937 15.4962 17.5066 15.0212L25.3442 22.6214C23.3252 24.0468 21.7819 26.1837 20.9503 28.5592L12.8755 26.303C12.8755 22.9779 10.1441 20.3652 6.93776 20.3652C3.73137 20.3652 1 23.0966 1 26.303C1 29.5094 3.73137 32.2407 6.93776 32.2407C9.43121 32.2407 11.5689 30.6969 12.4004 28.5592L20.4751 30.8154C20.4751 31.2905 20.3565 31.6464 20.3565 32.1215C20.3565 33.1903 20.4751 34.3777 20.8316 35.3279L20.7129 35.2092L11.688 43.9969C10.6192 43.2846 9.43179 42.9281 8.00648 42.9281C4.44419 42.9281 1.59428 45.778 1.59428 49.3403C1.59428 52.9026 4.44419 55.7525 8.00648 55.7525C11.5688 55.7525 14.4187 52.9026 14.4187 49.3403C14.4187 48.0343 13.9436 46.7276 13.2313 45.6588L21.5439 37.584C22.85 40.1967 25.1062 42.2152 27.8376 43.284V63.4712L24.394 60.0276C22.6128 58.2464 19.8815 58.4838 18.219 60.2649C16.7937 61.9274 16.9129 64.4209 18.5754 66.0834L27.1253 74.6333C27.9563 75.4643 29.1443 76.0586 30.4504 76.0586H49.4508C52.0635 76.0586 54.0819 73.921 54.0819 71.4275L54.0825 51.8337C54.0825 49.5774 52.1827 47.6777 49.9265 47.6777C48.9763 47.6777 48.1453 47.915 47.5516 48.39C46.8392 47.2026 45.5326 46.371 43.9893 46.371C43.0391 46.371 42.2081 46.6083 41.6144 47.0834C40.902 45.8959 39.5954 45.0644 38.0521 45.0644C37.4584 45.0644 36.746 45.183 36.2709 45.4208V43.0459C39.5959 41.8585 42.0894 39.2458 43.2773 35.9208H61.3274C61.9211 38.8894 64.5338 41.1456 67.6211 41.1456C71.1833 41.1456 74.0333 38.2957 74.0333 34.7334C74.0327 31.5276 71.1822 28.5584 67.6199 28.5584L67.6198 28.5586ZM66.551 14.3084C68.0948 14.3084 69.2824 15.4958 69.2824 17.0397C69.2824 18.5837 68.0949 19.7711 66.551 19.7711C65.0071 19.7711 63.8196 18.5837 63.8196 17.0397C63.8196 15.4958 65.0071 14.3084 66.551 14.3084ZM49.6891 5.28346C51.233 5.28346 52.4205 6.4709 52.4205 8.01484C52.4205 9.55877 51.2331 10.7462 49.6891 10.7462C48.1452 10.7462 46.9578 9.55877 46.9578 8.01484C46.9578 6.4709 48.2644 5.28346 49.6891 5.28346ZM11.8074 10.5083C11.8074 8.96444 12.9948 7.77691 14.5387 7.77691C16.0827 7.77691 17.2701 8.96435 17.2701 10.5083C17.2701 12.0522 15.964 13.2397 14.5387 13.2397C13.114 13.3583 11.8074 12.0522 11.8074 10.5083ZM6.58253 29.8642C4.56353 29.8642 3.02024 28.2016 3.02024 26.3019C3.02024 24.2829 4.68277 22.7396 6.58253 22.7396C8.60153 22.7396 10.1448 24.4021 10.1448 26.3019C10.264 28.2016 8.60153 29.8642 6.58253 29.8642ZM7.88859 53.4957C5.63237 53.4957 3.85115 51.7144 3.85115 49.4582C3.85115 47.202 5.63237 45.4208 7.88859 45.4208C10.1448 45.4208 11.926 47.202 11.926 49.4582C11.9266 51.7144 10.1448 53.4957 7.88859 53.4957ZM29.264 5.04582C29.264 3.50197 30.5701 2.31445 31.9954 2.31445C33.5392 2.31445 34.7268 3.62051 34.7268 5.04582C34.7268 6.47113 33.5393 7.77719 31.9954 7.77719C30.4515 7.89583 29.264 6.58975 29.264 5.04582ZM38.0511 47.5587C39.1199 47.5587 39.8323 48.5089 39.8323 49.34V50.5274C39.8323 51.2397 40.3074 51.7148 41.0198 51.7148C41.7321 51.7148 42.2072 51.2397 42.2072 50.5274C42.2072 49.5772 43.0382 48.7462 43.9884 48.7462C44.9386 48.7462 45.7697 49.5772 45.7697 50.5274V51.7148C45.7697 52.4272 46.2447 52.9023 46.9571 52.9023C47.6695 52.9023 48.1445 52.4272 48.1445 51.7148C48.1445 50.7647 48.9755 49.9336 49.9258 49.9336C50.9945 49.9336 51.707 50.8838 51.707 51.7148V71.1897C51.707 72.4957 50.6382 73.4459 49.4507 73.4459H30.4504C29.8566 73.4459 29.2629 73.2086 28.7878 72.7335L20.2379 64.1836C19.5256 63.4713 19.407 62.2839 20.0007 61.571C20.713 60.74 21.9004 60.74 22.6134 61.4523L28.076 66.9149C28.4324 67.2714 28.907 67.39 29.382 67.1522C29.8571 66.9149 30.0944 66.5585 30.0944 66.0834V36.277C30.213 33.6644 33.6567 33.9021 33.6567 36.1584V49.1021C33.6567 49.8144 34.1318 50.2895 34.8441 50.2895C35.5565 50.2895 36.0316 49.8144 36.0316 49.1021C36.1513 48.3897 36.9823 47.5582 38.0511 47.5582L38.0511 47.5587ZM36.1514 40.6714V36.3962C36.0327 31.0521 27.8387 30.9336 27.8387 36.6334V40.6709C24.6323 39.127 22.4946 35.8019 22.4946 32.121C22.4946 26.8962 26.7699 22.6209 31.9947 22.6209C37.2195 22.6209 41.4947 26.8962 41.4947 32.121C41.6139 35.8025 39.4763 39.1274 36.1512 40.6714L36.1514 40.6714ZM67.6204 39.1275C65.3642 39.1275 63.583 37.3463 63.583 35.0901C63.583 32.8339 65.3642 31.0527 67.6204 31.0527C69.8766 31.0527 71.6578 32.8339 71.6578 35.0901C71.6578 37.3463 69.8766 39.1275 67.6204 39.1275Z" fill="#00FFFA" stroke="#00FFFA"/>
</g>
<defs>
<clipPath id="clip0_333_216">
<rect width="76" height="76" fill="white" transform="translate(0 0.0878906)"/>
</clipPath>
</defs>
</svg>
