<svg width="44" height="73" viewBox="0 0 44 73" fill="none" xmlns="http://www.w3.org/2000/svg">
<path d="M21.5275 0.0292969C27.4642 0.0292969 32.8439 2.44046 36.7378 6.33268C40.637 10.234 43.0481 15.6117 43.0481 21.5512C43.0481 30.8691 40.0246 35.0044 36.8544 39.3429C33.6663 43.7053 30.3081 48.2984 30.3081 59.7025V61.2316H12.7401V59.7025C12.7401 48.2986 9.38447 43.7049 6.19369 39.3429C3.02364 35.004 0 30.8688 0 21.5512C0 15.6076 2.40898 10.2278 6.30338 6.33268C10.1956 2.44046 15.5776 0.0292969 21.5219 0.0292969H21.5275ZM27.6891 22.8093H23.0544V27.444H19.9988V22.8093H15.3641V19.7537H19.9988V15.119H23.0544V19.7537H27.6891V22.8093ZM21.5275 32.5535C24.6427 32.5535 27.4621 31.2931 29.5023 29.255C31.5398 27.2174 32.8008 24.3954 32.8008 21.2802C32.8008 18.1672 31.5377 15.3456 29.5002 13.308C27.4648 11.2678 24.6432 10.0074 21.528 10.0074C18.415 10.0074 15.5934 11.2705 13.5558 13.308C11.5183 15.3456 10.2552 18.1676 10.2552 21.2802C10.2552 24.3954 11.5157 27.2148 13.5538 29.255C15.5962 31.2904 18.4176 32.5535 21.5308 32.5535H21.5275ZM31.6565 31.4098C29.0614 34.0022 25.4815 35.609 21.5275 35.609C17.5713 35.609 13.986 34.0042 11.3957 31.4118C8.80556 28.8147 7.19857 25.2321 7.19857 21.2801C7.19857 17.3239 8.80337 13.7387 11.3957 11.1484C13.9881 8.55599 17.5707 6.95119 21.5275 6.95119C25.4795 6.95119 29.0621 8.55599 31.6523 11.1484C34.2494 13.7407 35.8537 17.3233 35.8537 21.2801C35.8537 25.2321 34.2489 28.8147 31.6545 31.4091L31.6565 31.4098ZM14.9235 72.0293C14.0798 72.0293 13.3944 71.346 13.3944 70.5002C13.3944 69.6565 14.0777 68.9711 14.9235 68.9711H28.131C28.9747 68.9711 29.6601 69.6544 29.6601 70.5002C29.6601 71.3439 28.9768 72.0293 28.131 72.0293H14.9235ZM12.3381 66.6287C11.4944 66.6287 10.809 65.9455 10.809 65.0997C10.809 64.256 11.4923 63.5706 12.3381 63.5706H30.7193C31.563 63.5706 32.2484 64.2538 32.2484 65.0997C32.2484 65.9433 31.5651 66.6287 30.7193 66.6287H12.3381ZM34.5887 8.48627C31.2491 5.14882 26.6299 3.08148 21.5277 3.08148C16.4299 3.08148 11.8112 5.14882 8.47114 8.489C5.12891 11.8312 3.06157 16.4478 3.06157 21.5456C3.06157 29.878 5.79146 33.6141 8.6567 37.5364C11.9894 42.0954 15.4899 46.8884 15.7787 58.1702H27.2743C27.5632 46.8878 31.0659 42.0948 34.3963 37.5364C37.2616 33.6169 39.9915 29.8803 39.9915 21.5456C39.9915 16.443 37.9241 11.8243 34.5867 8.48464L34.5887 8.48627Z" fill="#00FFFA"/>
</svg>
