<svg width="72" height="59" viewBox="0 0 72 59" fill="none" xmlns="http://www.w3.org/2000/svg">
<path d="M60 58.0294H44C42.8 58.0294 42 57.2294 42 56.0294V24.0294C42 22.8294 42.8 22.0294 44 22.0294H60C61.2 22.0294 62 22.8294 62 24.0294V56.0294C62 57.2294 61.2 58.0294 60 58.0294ZM46 54.0294H58V26.0294H46V54.0294Z" fill="#00FFFA"/>
<path d="M68.4 0.0292969H3.6C1.6 0.0292969 0 1.6293 0 3.6293V44.0293C0 46.4293 1.6 48.0293 3.6 48.0293H40V44.0293H4V4.0293H68V44.0293H64V48.0293H68.4C70.4 48.0293 72 46.4293 72 44.4293V3.6293C72 1.6293 70.4 0.0292969 68.4 0.0292969Z" fill="#00FFFA"/>
<path d="M40.0008 50.0293H26.8008C25.6008 50.0293 24.8008 50.8293 24.8008 52.0293C24.8008 53.2293 25.6008 54.0293 26.8008 54.0293H40.0008V50.0293Z" fill="#00FFFA"/>
</svg>
