<svg width="74" height="74" viewBox="0 0 74 74" fill="none" xmlns="http://www.w3.org/2000/svg">
<path d="M22.5565 66.7443C22.2836 66.7443 22.0219 66.6355 21.8291 66.4427L7.5901 52.2037C7.18872 51.8023 7.18872 51.1508 7.5901 50.7495L53.9077 4.4319C56.7132 1.63915 60.794 0.552329 64.6167 1.57975C68.44 2.60712 71.426 5.59307 72.4533 9.41638C73.4802 13.2391 72.3933 17.3199 69.6001 20.1254L23.2825 66.443H23.282C23.0892 66.6357 22.8275 66.7446 22.5551 66.7446L22.5565 66.7443ZM9.77198 51.4764L22.5565 64.2609L68.1456 18.6691C69.8526 16.9765 70.8152 14.6737 70.8199 12.2697C70.8252 9.86611 69.8722 7.55927 68.1726 5.85918C66.4725 4.15963 64.1657 3.20656 61.7621 3.21186C59.3579 3.21663 57.0553 4.17923 55.3627 5.88623L9.77198 51.4764Z" fill="#00FFFA" stroke="#00FFFA" stroke-width="1.3"/>
<path d="M2.17665 72.8807C1.85119 72.8802 1.54484 72.7262 1.35105 72.465C1.15725 72.2038 1.09832 71.8661 1.19229 71.5544L7.331 51.1786V51.1791C7.43506 50.8324 7.71381 50.5664 8.06422 50.4783C8.41517 50.3902 8.7863 50.4926 9.04221 50.748L23.2812 64.987C23.5366 65.243 23.6391 65.6141 23.5509 65.965C23.4628 66.3155 23.1968 66.5942 22.8501 66.6983L2.47429 72.837C2.37766 72.8667 2.27732 72.8816 2.17697 72.8816L2.17665 72.8807ZM8.80386 53.4183L3.71432 70.3132L20.6092 65.2236L8.80386 53.4183Z" fill="#00FFFA" stroke="#00FFFA" stroke-width="1.3"/>
<path d="M61.025 28.2682C60.7526 28.2682 60.4908 28.1599 60.2981 27.9667L46.0604 13.729C45.8619 13.5373 45.7488 13.274 45.7461 12.9984C45.744 12.7224 45.8523 12.4569 46.0477 12.262C46.2426 12.0666 46.508 11.9583 46.7836 11.961C47.0597 11.9631 47.323 12.0762 47.5147 12.2748L61.7523 26.5124C62.0465 26.8066 62.1346 27.2488 61.9753 27.6332C61.8161 28.0176 61.4412 28.2682 61.025 28.2682Z" fill="#00FFFA" stroke="#00FFFA" stroke-width="1.3"/>
<path d="M15.4389 59.6245C15.0226 59.6245 14.6478 59.3738 14.4885 58.9894C14.3292 58.6051 14.4174 58.1628 14.7115 57.8686L53.181 19.3991C53.583 18.9972 54.2344 18.9972 54.6363 19.3991C55.0383 19.801 55.0383 20.4525 54.6363 20.8544L16.1668 59.3239C15.9735 59.5167 15.7118 59.625 15.4389 59.6245Z" fill="#00FFFA" stroke="#00FFFA" stroke-width="1.3"/>
<path d="M54.11 73.0292H54.0999C53.244 73.0297 52.4238 72.6862 51.8238 72.0762L46.9891 67.2415C46.9583 67.217 46.9291 67.1905 46.902 67.1624L40.3859 60.6382C40.3551 60.6138 40.3259 60.5872 40.2983 60.5591L34.0125 54.2643V54.2638C33.8145 54.0721 33.7014 53.8088 33.6992 53.5327C33.6971 53.2571 33.806 52.9917 34.0008 52.7968C34.1962 52.602 34.4617 52.4936 34.7372 52.4963C35.0133 52.499 35.2767 52.612 35.4683 52.8106L41.6761 59.0273H41.6756C41.7064 59.0512 41.7356 59.0778 41.7632 59.1054L48.2793 65.6307C48.3096 65.6551 48.3388 65.6816 48.3664 65.7092L53.2829 70.6257H53.2835C53.5001 70.8471 53.7963 70.9719 54.1059 70.9725C54.4197 70.973 54.7202 70.8482 54.941 70.6257L70.5963 54.9704C70.8209 54.7496 70.9468 54.4475 70.9462 54.1321C70.9478 53.8231 70.8241 53.5263 70.6038 53.3097L52.7846 35.4932C52.5861 35.3015 52.473 35.0382 52.4708 34.7621C52.4682 34.486 52.5765 34.2211 52.7719 34.0257C52.9667 33.8308 53.2322 33.722 53.5083 33.7247C53.7838 33.7268 54.0472 33.8404 54.2389 34.0384L72.0539 51.8535C72.6619 52.4588 73.0033 53.2812 73.0033 54.1392C73.0033 54.9971 72.6619 55.8195 72.0539 56.4248L56.3986 72.0801L56.3992 72.0796C55.7934 72.6891 54.9693 73.031 54.1103 73.0289L54.11 73.0292Z" fill="#00FFFA" stroke="#00FFFA" stroke-width="1.3"/>
<path d="M20.4913 40.3208C20.2184 40.3219 19.9566 40.213 19.7644 40.0198L1.94932 22.2047C1.34139 21.5994 1 20.777 1 19.919C1 19.0611 1.34139 18.2387 1.94932 17.6334L17.6046 1.9781L17.6041 1.97863C18.2099 1.36911 19.034 1.02719 19.893 1.02931H19.9031C20.759 1.02878 21.5793 1.37229 22.1792 1.98234L39.9902 19.7933C40.1882 19.985 40.3019 20.2484 40.304 20.5239C40.3067 20.8 40.1978 21.0655 40.003 21.2603C39.8076 21.4557 39.5426 21.564 39.2665 21.5614C38.9905 21.5592 38.7271 21.4462 38.5354 21.2476L20.7204 3.4325C20.5037 3.2111 20.2075 3.08633 19.8979 3.0858C19.5841 3.08526 19.2836 3.21003 19.0622 3.4325L3.40286 19.0878C3.17987 19.3092 3.05456 19.6113 3.05615 19.9262C3.05456 20.2352 3.17827 20.532 3.3986 20.7486L21.2178 38.565C21.5119 38.8592 21.6 39.302 21.4408 39.6858C21.2815 40.0702 20.9066 40.3209 20.4904 40.3209L20.4913 40.3208Z" fill="#00FFFA" stroke="#00FFFA" stroke-width="1.3"/>
<path d="M14.6103 34.4406C14.1945 34.4406 13.8192 34.19 13.6604 33.8056C13.5011 33.4212 13.5893 32.9789 13.8829 32.6848L17.0006 29.5681C17.4047 29.1784 18.046 29.1837 18.4426 29.5803C18.8392 29.9775 18.845 30.6188 18.4553 31.0223L15.3387 34.1389C15.1454 34.3322 14.8837 34.4406 14.6103 34.4406Z" fill="#00FFFA" stroke="#00FFFA" stroke-width="1.3"/>
<path d="M41.0287 60.8583C40.6125 60.8583 40.2376 60.6077 40.0783 60.2233C39.9191 59.8394 40.0072 59.3966 40.3013 59.1025L43.418 55.9858C43.8215 55.5961 44.4629 55.6019 44.86 55.9985C45.2566 56.3952 45.2619 57.0371 44.8722 57.4405L41.7555 60.5572C41.5628 60.7499 41.3011 60.8583 41.0287 60.8583Z" fill="#00FFFA" stroke="#00FFFA" stroke-width="1.3"/>
<path d="M47.6299 67.4688C47.2142 67.4682 46.8388 67.2176 46.68 66.8337C46.5208 66.4494 46.6084 66.0071 46.9025 65.7129L51.5784 61.037C51.7701 60.8384 52.0335 60.7253 52.3095 60.7227C52.5856 60.7206 52.8506 60.8289 53.046 61.0243C53.2408 61.2191 53.3491 61.4846 53.347 61.7602C53.3443 62.0362 53.2312 62.2996 53.0332 62.4913L48.3573 67.1705C48.1635 67.3621 47.9023 67.4693 47.6299 67.4688Z" fill="#00FFFA" stroke="#00FFFA" stroke-width="1.3"/>
<path d="M17.0476 21.5926C15.6405 21.5921 14.3138 20.9369 13.4574 19.8203C12.6015 18.7038 12.3132 17.2521 12.6785 15.8929C13.0432 14.5342 14.0196 13.4219 15.32 12.8846C16.6202 12.3468 18.0968 12.4444 19.3148 13.149C20.5333 13.8536 21.3541 15.0842 21.5368 16.4796C21.7195 17.875 21.2427 19.2755 20.2466 20.27C19.3987 21.1184 18.2477 21.5947 17.0478 21.5926L17.0476 21.5926ZM17.0476 14.6055C16.2804 14.6071 15.5578 14.966 15.0921 15.576C14.6259 16.1856 14.4704 16.9776 14.6705 17.7184C14.8712 18.4591 15.4043 19.0643 16.1141 19.3569C16.8235 19.6489 17.6284 19.5948 18.2925 19.2093C18.9562 18.8244 19.4033 18.1528 19.502 17.3919C19.6008 16.6306 19.3401 15.8671 18.7964 15.3255C18.3323 14.8626 17.7033 14.6034 17.0476 14.6055Z" fill="#00FFFA" stroke="#00FFFA" stroke-width="1.3"/>
</svg>
