<svg width="10" height="10" viewBox="0 0 10 10" fill="none" xmlns="http://www.w3.org/2000/svg">
<path id="Vector" d="M9.51931 0.480624C9.20964 0.172788 8.79074 0 8.3541 0C7.91745 0 7.49855 0.172788 7.18888 0.480624L5.04025 2.62926L2.90815 0.497149C2.59197 0.226376 2.18526 0.0848891 1.76929 0.100956C1.35333 0.117023 0.958741 0.289462 0.664388 0.583817C0.370035 0.878171 0.197598 1.27276 0.181531 1.68873C0.165464 2.1047 0.30695 2.51141 0.577721 2.8276L2.70982 4.95971L0.577721 7.09183C0.404704 7.24 0.264183 7.42233 0.164977 7.62738C0.0657716 7.83244 0.0100236 8.05578 0.00123159 8.28341C-0.00756042 8.51103 0.0307957 8.73801 0.113889 8.95011C0.196982 9.1622 0.323018 9.35483 0.48409 9.51591C0.645162 9.67698 0.83779 9.80302 1.04988 9.88611C1.26198 9.9692 1.48896 10.0076 1.71658 9.99877C1.9442 9.98998 2.16755 9.93423 2.3726 9.83502C2.57765 9.73582 2.75999 9.59529 2.90815 9.42228L5.04025 7.29016L7.17235 9.42228C7.48853 9.69305 7.89525 9.83454 8.31121 9.81847C8.72718 9.8024 9.12177 9.62996 9.41612 9.33561C9.71047 9.04125 9.88291 8.64666 9.89898 8.23069C9.91504 7.81472 9.77356 7.40801 9.50279 7.09183L7.37069 4.95971L9.50279 2.8276C9.65879 2.67504 9.78304 2.49311 9.86837 2.29229C9.9537 2.09147 9.99842 1.87574 9.99996 1.65755C10.0015 1.43936 9.95981 1.22303 9.87732 1.02103C9.79482 0.819026 9.67315 0.635361 9.51931 0.480624Z" fill="#ADADAD"/>
</svg>
