<svg width="14" height="15" viewBox="0 0 14 15" fill="none" xmlns="http://www.w3.org/2000/svg">
<path d="M7 14.5C10.866 14.5 14 11.366 14 7.5C14 3.634 10.866 0.5 7 0.5C3.134 0.5 0 3.634 0 7.5C0.00418359 11.3643 3.13573 14.4958 7 14.5ZM6.41668 4C6.41668 3.67784 6.67784 3.41668 7 3.41668C7.32216 3.41668 7.58332 3.67784 7.58332 4V8.66668C7.58332 8.98884 7.32216 9.25 7 9.25C6.67784 9.25 6.41668 8.98884 6.41668 8.66668V4ZM7 11C7.32216 11 7.58332 11.2612 7.58332 11.5833C7.58332 11.9055 7.32216 12.1666 7 12.1666C6.67784 12.1666 6.41668 11.9055 6.41668 11.5833C6.41668 11.2612 6.67784 11 7 11Z" fill="#DB1D1A"/>
</svg>
