<svg width="24" height="24" viewBox="0 0 24 24" fill="none" xmlns="http://www.w3.org/2000/svg">
<path d="M12 0C8.81737 0 5.76519 1.26428 3.51477 3.51477C1.26428 5.7651 0 8.81745 0 12C0 15.1825 1.26428 18.2348 3.51477 20.4852C5.7651 22.7357 8.81745 24 12 24C15.1825 24 18.2348 22.7357 20.4852 20.4852C22.7357 18.2349 24 15.1825 24 12C24 8.81745 22.7357 5.76519 20.4852 3.51477C18.2349 1.26428 15.1825 0 12 0ZM11.6807 17.9999C11.3364 17.9999 11.0063 17.8631 10.7627 17.6195C10.5193 17.3761 10.3825 17.0458 10.3825 16.7014C10.3825 16.3571 10.5193 16.027 10.7627 15.7834C11.0063 15.5399 11.3364 15.403 11.6807 15.403C12.0251 15.403 12.3554 15.5399 12.5988 15.7834C12.8424 16.0269 12.9792 16.3571 12.9792 16.7014C12.9792 17.0458 12.8424 17.3761 12.5988 17.6195C12.3554 17.8631 12.0251 17.9999 11.6807 17.9999ZM15.8663 9.94536C15.7167 10.4653 15.425 10.9334 15.0239 11.2967C14.7037 11.5995 14.3611 11.8778 13.9992 12.1294C13.7376 12.3214 13.4807 12.523 13.2239 12.7245C13.0523 12.8749 12.9218 13.0666 12.8448 13.2813C12.7791 13.4414 12.7152 13.5949 12.6527 13.7422C12.5888 13.9078 12.4761 14.0501 12.3295 14.1504C12.183 14.2506 12.0095 14.304 11.8319 14.3039C11.5976 14.3315 11.3603 14.2809 11.1576 14.1597C10.9919 14.0564 10.8573 13.9103 10.7682 13.7365C10.679 13.5629 10.6387 13.3682 10.6512 13.1733C10.6644 12.6915 10.857 12.2318 11.1913 11.8846C11.5797 11.487 12.0022 11.1241 12.4537 10.7998C12.7902 10.5548 13.0803 10.2517 13.3104 9.90469C13.6247 9.38154 13.5263 8.52474 12.9888 8.14555V8.14538C12.7947 8.00944 12.5724 7.91921 12.3384 7.88137C11.9813 7.81458 11.6131 7.83517 11.2656 7.94147C10.8844 8.07673 10.5767 8.36451 10.416 8.73582C10.2769 9.00217 10.1544 9.27822 9.99599 9.5327C9.87512 9.7202 9.6975 9.86434 9.48891 9.94369C9.28049 10.0232 9.05198 10.0339 8.83684 9.97416C8.64265 9.94269 8.46235 9.85413 8.31853 9.71986C8.12484 9.5317 8.02172 9.26935 8.03528 8.99983C8.04164 8.53577 8.18712 8.08427 8.4528 7.70392C8.90026 7.06141 9.53592 6.5734 10.272 6.30704C10.7637 6.11519 11.2852 6.01123 11.8129 5.99985C12.5856 5.9883 13.3527 6.13528 14.0664 6.43176C14.6708 6.67467 15.1832 7.10225 15.5303 7.65352C15.9537 8.33837 16.0754 9.16772 15.8663 9.94536Z" fill="#00FFFA"/>
</svg>
