<svg width="14" height="14" viewBox="0 0 14 14" fill="none" xmlns="http://www.w3.org/2000/svg">
<path d="M13.327 0.672873C12.8935 0.241903 12.307 0 11.6957 0C11.0844 0 10.498 0.241903 10.0644 0.672873L7.05635 3.68097L4.07142 0.696008C3.62876 0.316927 3.05937 0.118845 2.47701 0.141339C1.89466 0.163833 1.34224 0.405246 0.930143 0.817343C0.518049 1.22944 0.276637 1.78187 0.254143 2.36422C0.23165 2.94658 0.429731 3.51598 0.808809 3.95864L3.79375 6.9436L0.808809 9.92856C0.566586 10.136 0.369857 10.3913 0.230968 10.6783C0.0920803 10.9654 0.014033 11.2781 0.00172422 11.5968C-0.0105846 11.9154 0.043114 12.2332 0.159445 12.5302C0.275775 12.8271 0.452225 13.0968 0.677726 13.3223C0.903227 13.5478 1.17291 13.7242 1.46984 13.8406C1.76677 13.9569 2.08455 14.0106 2.40322 13.9983C2.72189 13.986 3.03457 13.9079 3.32164 13.769C3.60871 13.6301 3.86398 13.4334 4.07142 13.1912L7.05635 10.2062L10.0413 13.1912C10.4839 13.5703 11.0533 13.7684 11.6357 13.7459C12.2181 13.7234 12.7705 13.4819 13.1826 13.0699C13.5947 12.6578 13.8361 12.1053 13.8586 11.523C13.8811 10.9406 13.683 10.3712 13.3039 9.92856L10.319 6.9436L13.3039 3.95864C13.5223 3.74506 13.6962 3.49035 13.8157 3.20921C13.9352 2.92806 13.9978 2.62604 13.9999 2.32057C14.0021 2.01511 13.9437 1.71224 13.8282 1.42944C13.7128 1.14664 13.5424 0.889506 13.327 0.672873Z" fill="white"/>
</svg>
