<svg width="26" height="27" viewBox="0 0 26 27" fill="none" xmlns="http://www.w3.org/2000/svg">
<g filter="url(#filter0_d_1318_3537)">
<path d="M4.855 3.61H20.245C20.4844 3.61 20.6868 3.69265 20.8521 3.85795C21.0174 4.02325 21.1 4.2256 21.1 4.465V18.145C21.1 18.3844 21.0174 18.5867 20.8521 18.752C20.6868 18.9174 20.4844 19 20.245 19H4.855C4.6156 19 4.41325 18.9174 4.24795 18.752C4.08265 18.5867 4 18.3844 4 18.145V4.465C4 4.2256 4.08265 4.02325 4.24795 3.85795C4.41325 3.69265 4.6156 3.61 4.855 3.61ZM19.39 7.2352L12.6184 13.3057L5.71 7.2181V17.29H19.39V7.2352ZM6.1546 5.32L12.6013 11.0143L18.9625 5.32H6.1546Z" fill="#00FFFA" fill-opacity="0.6"/>
</g>
<defs>
<filter id="filter0_d_1318_3537" x="-3" y="0" width="32" height="32" filterUnits="userSpaceOnUse" color-interpolation-filters="sRGB">
<feFlood flood-opacity="0" result="BackgroundImageFix"/>
<feColorMatrix in="SourceAlpha" type="matrix" values="0 0 0 0 0 0 0 0 0 0 0 0 0 0 0 0 0 0 127 0" result="hardAlpha"/>
<feOffset dy="4"/>
<feGaussianBlur stdDeviation="2"/>
<feComposite in2="hardAlpha" operator="out"/>
<feColorMatrix type="matrix" values="0 0 0 0 0 0 0 0 0 0 0 0 0 0 0 0 0 0 0.25 0"/>
<feBlend mode="normal" in2="BackgroundImageFix" result="effect1_dropShadow_1318_3537"/>
<feBlend mode="normal" in="SourceGraphic" in2="effect1_dropShadow_1318_3537" result="shape"/>
</filter>
</defs>
</svg>
