<svg width="24" height="24" viewBox="0 0 24 24" fill="none" xmlns="http://www.w3.org/2000/svg">
<path d="M9.4378 10.1764C9.8368 10.8832 10.3242 11.5244 10.8999 12.1001C11.4756 12.6758 12.1168 13.1632 12.8236 13.5622L13.576 12.502C13.7014 12.3196 13.8696 12.2056 14.0805 12.16C14.2914 12.1144 14.4937 12.1429 14.6875 12.2455C15.9073 12.9181 17.2126 13.3057 18.6034 13.4083C18.82 13.4311 19.0053 13.5223 19.1592 13.6819C19.3131 13.8415 19.39 14.0353 19.39 14.2633V18.0766C19.39 18.2932 19.3159 18.4841 19.1677 18.6494C19.0195 18.8148 18.8371 18.9088 18.6205 18.9316C18.1759 18.9772 17.7199 19 17.2525 19C15.4513 19 13.7299 18.6523 12.0883 17.9569C10.5037 17.2843 9.1015 16.3381 7.8817 15.1183C6.6619 13.8985 5.7157 12.4963 5.0431 10.9117C4.3477 9.2701 4 7.5487 4 5.7475C4 5.2801 4.0228 4.8241 4.0684 4.3795C4.0912 4.1629 4.18525 3.9805 4.35055 3.8323C4.51585 3.6841 4.7068 3.61 4.9234 3.61H8.7367C8.9647 3.61 9.1585 3.68695 9.3181 3.84085C9.4777 3.99475 9.5689 4.18 9.5917 4.3966C9.6943 5.7874 10.0819 7.0927 10.7545 8.3125C10.8571 8.5063 10.8856 8.70865 10.84 8.91955C10.7944 9.13045 10.6804 9.2986 10.498 9.424L9.4378 10.1764ZM7.2832 9.6121L8.9077 8.4493C8.4517 7.4575 8.1382 6.4144 7.9672 5.32H5.7271L5.71 5.7475C5.71 7.3093 6.0121 8.8084 6.6163 10.2448C7.1977 11.6242 8.02135 12.8468 9.08725 13.9127C10.1532 14.9786 11.3758 15.8023 12.7552 16.3837C14.1916 16.9879 15.6907 17.29 17.2525 17.29H17.68V15.0328C16.5856 14.8618 15.5425 14.5483 14.5507 14.0923L13.3879 15.7168C12.9205 15.5344 12.4645 15.3178 12.0199 15.067L11.9686 15.0499C11.1364 14.5711 10.3783 13.9897 9.6943 13.3057C9.0103 12.6217 8.4289 11.8636 7.9501 11.0314L7.933 10.9801C7.6822 10.5355 7.4656 10.0795 7.2832 9.6121Z" fill="#00FFFA" fill-opacity="0.6"/>
</svg>
