<svg width="19" height="22" viewBox="0 0 19 22" fill="none" xmlns="http://www.w3.org/2000/svg">
<path d="M9.11602 19.1436L14.14 14.1197C15.0448 13.2149 15.6593 12.1479 15.9834 10.919C16.294 9.717 16.294 8.51504 15.9834 7.31308C15.6593 6.0841 15.0414 5.01381 14.1298 4.10221C13.2182 3.19061 12.1479 2.57274 10.919 2.24862C9.717 1.938 8.51504 1.938 7.31308 2.24862C6.0841 2.57274 5.01381 3.19061 4.10221 4.10221C3.19061 5.01381 2.57274 6.0841 2.24862 7.31308C1.938 8.51504 1.938 9.717 2.24862 10.919C2.57274 12.1479 3.19398 13.2216 4.11234 14.14L9.11602 19.1436ZM9.11602 22L2.67403 15.558C1.49908 14.3966 0.709024 13.019 0.303867 11.4254C-0.101289 9.88582 -0.101289 8.34622 0.303867 6.80663C0.709024 5.21301 1.4957 3.83211 2.6639 2.6639C3.83211 1.4957 5.21301 0.709024 6.80663 0.303867C8.34622 -0.10129 9.88582 -0.10129 11.4254 0.303867C13.019 0.709024 14.3999 1.4957 15.5681 2.6639C16.7363 3.83211 17.523 5.21301 17.9282 6.80663C18.3333 8.34622 18.3333 9.88582 17.9282 11.4254C17.523 13.019 16.733 14.3966 15.558 15.558L9.11602 22ZM9.11602 11.1418C9.66974 11.1418 10.1458 10.9426 10.5442 10.5442C10.9426 10.1458 11.1418 9.66974 11.1418 9.11602C11.1418 8.56231 10.9426 8.08625 10.5442 7.68785C10.1458 7.28944 9.66974 7.09024 9.11602 7.09024C8.56231 7.09024 8.08625 7.28944 7.68785 7.68785C7.28944 8.08625 7.09024 8.56231 7.09024 9.11602C7.09024 9.66974 7.28944 10.1458 7.68785 10.5442C8.08625 10.9426 8.56231 11.1418 9.11602 11.1418ZM9.11602 13.1676C8.38674 13.1676 7.71148 12.9853 7.09024 12.6206C6.469 12.256 5.97606 11.763 5.61142 11.1418C5.24678 10.5206 5.06446 9.8453 5.06446 9.11602C5.06446 8.38674 5.24678 7.71148 5.61142 7.09024C5.97606 6.469 6.469 5.97606 7.09024 5.61142C7.71148 5.24678 8.38674 5.06446 9.11602 5.06446C9.8453 5.06446 10.5206 5.24678 11.1418 5.61142C11.763 5.97606 12.256 6.469 12.6206 7.09024C12.9853 7.71148 13.1676 8.38674 13.1676 9.11602C13.1676 9.8453 12.9853 10.5206 12.6206 11.1418C12.256 11.763 11.763 12.256 11.1418 12.6206C10.5206 12.9853 9.8453 13.1676 9.11602 13.1676Z" fill="#00FFFA" fill-opacity="0.6"/>
</svg>
