<svg width="22" height="22" viewBox="0 0 22 22" fill="none" xmlns="http://www.w3.org/2000/svg">
<g clip-path="url(#clip0_407_367)">
<path d="M4.87566 13.2946L4.10988 16.1534L1.31093 16.2126C0.474461 14.6611 0 12.886 0 10.9997C0 9.17565 0.443609 7.45552 1.22994 5.94092H1.23054L3.72238 6.39776L4.81396 8.87465C4.5855 9.54071 4.46097 10.2557 4.46097 10.9997C4.46106 11.8072 4.60732 12.5808 4.87566 13.2946Z" fill="#FBBB00"/>
<path d="M21.8082 8.94531C21.9345 9.61073 22.0004 10.2979 22.0004 11.0003C22.0004 11.7878 21.9176 12.556 21.7598 13.297C21.2243 15.8185 19.8252 18.0203 17.8869 19.5784L17.8863 19.5778L14.7477 19.4177L14.3035 16.6447C15.5896 15.8904 16.5947 14.71 17.1242 13.297H11.2422V8.94531H17.21H21.8082Z" fill="#518EF8"/>
<path d="M17.885 19.5771L17.8856 19.5777C16.0005 21.0929 13.6059 21.9995 10.9991 21.9995C6.81006 21.9995 3.16798 19.6581 1.31006 16.2124L4.87479 13.2944C5.80373 15.7736 8.19533 17.5385 10.9991 17.5385C12.2043 17.5385 13.3333 17.2127 14.3021 16.644L17.885 19.5771Z" fill="#28B446"/>
<path d="M18.0218 2.53241L14.4583 5.44981C13.4556 4.82307 12.2703 4.46102 11.0005 4.46102C8.13327 4.46102 5.69694 6.30682 4.81454 8.87494L1.23107 5.9412H1.23047C3.0612 2.41154 6.7492 0 11.0005 0C13.6695 0 16.1167 0.950727 18.0218 2.53241Z" fill="#F14336"/>
</g>
<defs>
<clipPath id="clip0_407_367">
<rect width="22" height="22" fill="white"/>
</clipPath>
</defs>
</svg>
