<svg width="45" height="46" viewBox="0 0 45 46" fill="none" xmlns="http://www.w3.org/2000/svg">
<path fill-rule="evenodd" clip-rule="evenodd" d="M36.025 19.1924C35.6083 19.1924 35.2692 18.8548 35.2692 18.4367V2.85143C35.2692 2.47112 34.9599 2.16037 34.5782 2.16037H10.7962C10.4159 2.16037 10.1052 2.46972 10.1052 2.85143V18.4385C10.1052 18.8552 9.76752 19.1942 9.34946 19.1942C8.93281 19.1942 8.59375 18.8566 8.59375 18.4385L8.59445 2.85053C8.59445 1.63696 9.58154 0.648438 10.7952 0.648438H34.5772C35.7907 0.648438 36.7779 1.63553 36.7779 2.85053V18.4376C36.7793 18.8557 36.4413 19.1933 36.025 19.1933L36.025 19.1924Z" fill="#0E2E4A" stroke="#0E2E4A"/>
<path fill-rule="evenodd" clip-rule="evenodd" d="M36.3005 22.9704H9.07437C7.61606 22.9704 6.42969 21.784 6.42969 20.3257V18.4354C6.42969 18.0187 6.76734 17.6797 7.1854 17.6797H38.1922C38.6089 17.6797 38.948 18.0173 38.948 18.4354V20.3257C38.9466 21.784 37.7589 22.9704 36.3005 22.9704ZM7.93972 19.1912V20.3258C7.93972 20.9522 8.44831 21.4605 9.07437 21.4605H36.3005C36.9255 21.4605 37.4352 20.9519 37.4352 20.3258V19.1912H7.93972Z" fill="#0E2E4A" stroke="#0E2E4A"/>
<path fill-rule="evenodd" clip-rule="evenodd" d="M22.6857 12.307C20.7202 12.307 19.1211 10.7079 19.1211 8.74239C19.1211 6.77689 20.7202 5.17773 22.6857 5.17773C24.6512 5.17773 26.2504 6.77689 26.2504 8.74239C26.2501 10.7079 24.6523 12.307 22.6857 12.307ZM22.6857 6.6892C21.5536 6.6892 20.6326 7.61025 20.6326 8.74239C20.6326 9.87453 21.5536 10.7956 22.6857 10.7956C23.8179 10.7956 24.7389 9.87453 24.7389 8.74239C24.7389 7.61061 23.819 6.6892 22.6857 6.6892Z" fill="#0E2E4A" stroke="#0E2E4A"/>
<path fill-rule="evenodd" clip-rule="evenodd" d="M27.3452 19.1915C26.9286 19.1915 26.5895 18.8539 26.5895 18.4358V15.865C26.5895 15.1417 26.1484 14.4948 25.5105 14.2064C24.0899 16.0579 21.2834 16.0593 19.86 14.2064C19.2207 14.4937 18.781 15.1417 18.781 15.865V18.4358C18.781 18.8525 18.4433 19.1915 18.0252 19.1915C17.6086 19.1915 17.2695 18.8539 17.2695 18.4358V15.865C17.2695 14.2476 18.4741 12.8361 20.0718 12.5799C20.3927 12.5282 20.7111 12.6886 20.8611 12.977C21.6283 14.4531 23.7399 14.4531 24.5071 12.977C24.6571 12.6886 24.9755 12.5282 25.2964 12.5799C26.8941 12.8348 28.0987 14.2476 28.0987 15.865V18.4358C28.1008 18.8539 27.7617 19.1915 27.3451 19.1915H27.3452Z" fill="#0E2E4A" stroke="#0E2E4A"/>
<path fill-rule="evenodd" clip-rule="evenodd" d="M39.4175 35.6663C39.0008 35.6663 38.6617 35.3286 38.6617 34.9106V29.8813L22.6854 29.8817C22.2687 29.8817 21.9297 29.544 21.9297 29.126V22.2169C21.9297 21.8002 22.2673 21.4612 22.6854 21.4612C23.1021 21.4612 23.4411 21.7988 23.4411 22.2169V28.3716H39.4166C39.8332 28.3716 40.1723 28.7093 40.1723 29.1273V34.9122C40.1719 35.3275 39.8343 35.6662 39.4176 35.6662L39.4175 35.6663Z" fill="#0E2E4A" stroke="#0E2E4A"/>
<path fill-rule="evenodd" clip-rule="evenodd" d="M5.95493 35.6672C5.53828 35.6672 5.19922 35.3295 5.19922 34.9115V29.1268C5.19922 28.7102 5.53687 28.3711 5.95493 28.3711L22.6856 28.3714C23.1023 28.3714 23.4413 28.7091 23.4413 29.1272C23.4413 29.5452 23.1037 29.8829 22.6856 29.8829L6.71017 29.8825V34.9117C6.71017 35.3284 6.37251 35.6671 5.95446 35.6671L5.95493 35.6672Z" fill="#0E2E4A" stroke="#0E2E4A"/>
<path fill-rule="evenodd" clip-rule="evenodd" d="M9.81185 40.9699H2.09946C1.68281 40.9699 1.34375 40.6323 1.34375 40.2142V34.912C1.34375 34.4953 1.68141 34.1562 2.09946 34.1562L9.81185 34.1566C10.2285 34.1566 10.5676 34.4943 10.5676 34.9123V40.2146C10.5676 40.6323 10.2285 40.9699 9.81185 40.9699ZM2.85381 39.4602H9.05643V35.668L2.85381 35.6677V39.4602Z" fill="#0E2E4A" stroke="#0E2E4A"/>
<path fill-rule="evenodd" clip-rule="evenodd" d="M8.58488 44.5941L5.6739 43.4322C5.38658 43.3183 5.19922 43.0401 5.19922 42.7311V40.2147C5.19922 39.798 5.53687 39.459 5.95493 39.459C6.37299 39.459 6.71064 39.7966 6.71064 40.2147V42.22L9.14701 43.1931C9.53395 43.347 9.7227 43.787 9.5689 44.174C9.4144 44.5553 8.97706 44.7493 8.58488 44.5941Z" fill="#0E2E4A" stroke="#0E2E4A"/>
<path fill-rule="evenodd" clip-rule="evenodd" d="M2.34279 44.173C2.18899 43.786 2.37635 43.3463 2.76469 43.1921L5.67567 42.0303C6.06261 41.8765 6.50234 42.0639 6.6565 42.4522C6.8103 42.8391 6.62294 43.2789 6.2346 43.433L3.32362 44.5949C2.94436 44.7476 2.50045 44.5662 2.34279 44.173Z" fill="#0E2E4A" stroke="#0E2E4A"/>
<path fill-rule="evenodd" clip-rule="evenodd" d="M43.234 40.9699H35.5213C35.1047 40.9699 34.7656 40.6323 34.7656 40.2142V34.912C34.7656 34.4953 35.1033 34.1562 35.5213 34.1562H43.234C43.6506 34.1562 43.9897 34.4939 43.9897 34.912V40.2142C43.9897 40.6323 43.652 40.9699 43.234 40.9699ZM36.277 39.4602H42.4796V35.668H36.277V39.4602Z" fill="#0E2E4A" stroke="#0E2E4A"/>
<path fill-rule="evenodd" clip-rule="evenodd" d="M42.0107 44.5941L39.0997 43.4322C38.8124 43.3183 38.625 43.04 38.625 42.731V40.2147C38.625 39.798 38.9627 39.459 39.3807 39.459C39.7974 39.459 40.1364 39.7966 40.1364 40.2147V42.22L42.5728 43.1931C42.9597 43.3469 43.1485 43.787 42.9947 44.1739C42.8384 44.5567 42.4011 44.7493 42.0107 44.5941Z" fill="#0E2E4A" stroke="#0E2E4A"/>
<path fill-rule="evenodd" clip-rule="evenodd" d="M35.7647 44.173C35.6109 43.786 35.7982 43.3463 36.1866 43.1921L39.0975 42.0303C39.4845 41.8765 39.9242 42.0639 40.0784 42.4522C40.2322 42.8391 40.0448 43.2789 39.6565 43.433L36.7455 44.5949C36.3662 44.7476 35.9213 44.5662 35.7647 44.173Z" fill="#0E2E4A" stroke="#0E2E4A"/>
<path fill-rule="evenodd" clip-rule="evenodd" d="M22.6854 35.6672C22.2687 35.6672 21.9297 35.3295 21.9297 34.9115V29.1268C21.9297 28.7102 22.2673 28.3711 22.6854 28.3711C23.1021 28.3711 23.4411 28.7088 23.4411 29.1268V34.9117C23.4408 35.3284 23.1031 35.6672 22.6854 35.6672Z" fill="#0E2E4A" stroke="#0E2E4A"/>
<path fill-rule="evenodd" clip-rule="evenodd" d="M26.5426 40.9699H18.8299C18.4133 40.9699 18.0742 40.6323 18.0742 40.2142V34.912C18.0742 34.4953 18.4119 34.1562 18.8299 34.1562H26.5437C26.9603 34.1562 27.2994 34.4939 27.2994 34.912V40.2142C27.298 40.6323 26.9603 40.9699 26.5426 40.9699ZM19.5842 39.4602H25.7868V35.668H19.5842V39.4602Z" fill="#0E2E4A" stroke="#0E2E4A"/>
<path fill-rule="evenodd" clip-rule="evenodd" d="M25.3153 44.5941L22.4044 43.4322C22.117 43.3183 21.9297 43.0401 21.9297 42.7311V40.2147C21.9297 39.798 22.2673 39.459 22.6854 39.459C23.1021 39.459 23.4411 39.7966 23.4411 40.2147V42.22L25.8775 43.1931C26.2644 43.347 26.4532 43.787 26.2994 44.174C26.1449 44.5567 25.7061 44.7493 25.3153 44.5941Z" fill="#0E2E4A" stroke="#0E2E4A"/>
<path fill-rule="evenodd" clip-rule="evenodd" d="M19.0733 44.173C18.9195 43.786 19.1068 43.3463 19.4952 43.1921L22.4061 42.0303C22.7931 41.8765 23.2328 42.0639 23.387 42.4522C23.5408 42.8391 23.3534 43.2789 22.9651 43.433L20.0541 44.5949C19.6748 44.7476 19.2299 44.5662 19.0733 44.173Z" fill="#0E2E4A" stroke="#0E2E4A"/>
</svg>
