<svg width="38" height="46" viewBox="0 0 38 46" fill="none" xmlns="http://www.w3.org/2000/svg">
<path d="M17.2104 16.5127C17.3735 16.6758 17.58 16.7518 17.7861 16.7518C17.9927 16.7518 18.1988 16.6758 18.3618 16.5127L22.7075 12.1671C23.0226 11.8519 23.0226 11.3302 22.7075 11.0156C22.3924 10.7005 21.8707 10.7005 21.5561 11.0156L17.7862 14.7855L16.8409 13.8401C16.5258 13.525 16.0041 13.525 15.6895 13.8401C15.3743 14.1552 15.3743 14.6769 15.6895 14.9916L17.2104 16.5127Z" fill="#0E2E4A" stroke="#0E2E4A"/>
<path d="M14.07 24.2917C12.766 24.976 11.8646 26.3235 11.8646 27.8881C11.8646 28.0401 11.8971 28.1922 11.9081 28.3442C6.22603 29.3111 2.04297 34.2544 2.04297 40.1976V44.1851C2.04297 44.6308 2.41261 44.9999 2.85778 44.9999C3.30345 44.9999 3.67258 44.6303 3.67258 44.1851V40.1976C3.67258 34.9717 7.39902 30.6476 12.4189 29.9087C13.1251 31.1257 14.4286 31.9515 15.9281 31.9515H22.447C23.9466 31.9515 25.2501 31.1257 25.9563 29.9087C30.9541 30.669 34.6696 34.9826 34.6696 40.1866L34.6691 44.1851C34.6691 44.6308 35.0387 44.9999 35.4839 44.9999C35.9295 44.9999 36.2987 44.6303 36.2987 44.1851V40.1976C36.2987 34.2654 32.1377 29.333 26.4771 28.3442C26.4986 28.1922 26.5206 28.0401 26.5206 27.8881C26.5206 26.3235 25.6187 24.9765 24.3257 24.2917C24.6298 22.5751 25.5101 20.9234 26.8462 19.5875C28.9215 17.5343 30.0619 14.7962 30.0619 11.8737C30.0619 8.88606 28.8774 6.09347 26.7156 4.02921C24.5643 1.95395 21.7398 0.889486 18.7301 1.00908C13.0806 1.23716 8.39786 6.02842 8.30029 11.678C8.24577 14.7312 9.43021 17.5777 11.625 19.696C12.9291 20.9349 13.7764 22.5535 14.07 24.2917ZM22.4576 30.3325H15.9387C14.5917 30.3325 13.4943 29.2351 13.4943 27.8881C13.4943 26.541 14.5917 25.4436 15.9387 25.4436H22.4576C23.8047 25.4436 24.902 26.541 24.902 27.8881C24.902 29.2355 23.8046 30.3325 22.4576 30.3325ZM18.8177 2.63836C21.3601 2.52982 23.772 3.45317 25.6082 5.21327C27.4444 6.97341 28.4547 9.34178 28.4547 11.8843C28.4547 14.3612 27.4879 16.6866 25.7167 18.4357C24.1846 19.9568 23.1528 21.858 22.7616 23.8462C22.6641 23.8352 22.566 23.8137 22.4575 23.8137H15.9386C15.8411 23.8137 15.743 23.8352 15.6455 23.8462C15.2653 21.8365 14.2655 19.9678 12.7775 18.5333C10.9087 16.7296 9.89844 14.3067 9.95248 11.7103C10.039 6.89748 14.0154 2.823 18.8177 2.63836Z" fill="#0E2E4A" stroke="#0E2E4A"/>
<path d="M9.69141 37.6664V44.1853C9.69141 44.6309 10.061 45.0001 10.5062 45.0001C10.9519 45.0001 11.321 44.6304 11.321 44.1853V37.6664C11.321 37.2207 10.9514 36.8516 10.5062 36.8516C10.061 36.8516 9.69141 37.2102 9.69141 37.6664Z" fill="#0E2E4A" stroke="#0E2E4A"/>
<path d="M27.0742 37.6664V44.1853C27.0742 44.6309 27.4439 45.0001 27.889 45.0001C28.3347 45.0001 28.7038 44.6304 28.7038 44.1853V37.6664C28.7038 37.2207 28.3342 36.8516 27.889 36.8516C27.4439 36.8516 27.0742 37.2102 27.0742 37.6664Z" fill="#0E2E4A" stroke="#0E2E4A"/>
<path d="M32.5078 11.5902C32.5078 12.0359 32.8774 12.405 33.3226 12.405H36.5818C37.0275 12.405 37.3966 12.0354 37.3966 11.5902C37.3966 11.1445 37.027 10.7754 36.5818 10.7754H33.3226C32.8769 10.7754 32.5078 11.134 32.5078 11.5902Z" fill="#0E2E4A" stroke="#0E2E4A"/>
<path d="M1.81481 12.405H5.074C5.51967 12.405 5.88881 12.0354 5.88881 11.5902C5.88881 11.1445 5.51917 10.7754 5.074 10.7754H1.81481C1.36914 10.7754 1 11.145 1 11.5902C1 12.0359 1.36964 12.405 1.81481 12.405Z" fill="#0E2E4A" stroke="#0E2E4A"/>
<path d="M31.4321 5.34358C31.5731 5.34358 31.7147 5.31106 31.8342 5.23504L34.6592 3.60537C35.0503 3.37729 35.1809 2.8776 34.9523 2.49697C34.7242 2.11682 34.235 1.97528 33.8439 2.20385L31.0189 3.83352C30.6278 4.06159 30.4972 4.56129 30.7258 4.94192C30.8784 5.19151 31.15 5.34358 31.4321 5.34358Z" fill="#0E2E4A" stroke="#0E2E4A"/>
<path d="M4.55295 20.9894L7.37794 19.3597C7.76909 19.1317 7.89963 18.632 7.67106 18.2513C7.44298 17.8602 6.94329 17.7296 6.56265 17.9582L3.73766 19.5879C3.34652 19.816 3.21597 20.3157 3.44455 20.6963C3.59661 20.9569 3.86821 21.1089 4.15081 21.1089C4.28135 21.0979 4.42241 21.0654 4.55295 20.9894Z" fill="#0E2E4A" stroke="#0E2E4A"/>
<path d="M3.73668 3.60639L6.56167 5.23605C6.69221 5.31208 6.83327 5.34459 6.96382 5.34459C7.24642 5.34459 7.51802 5.20354 7.67007 4.93193C7.89815 4.54079 7.75711 4.04111 7.37696 3.82353L4.55197 2.19387C4.16083 1.96579 3.66115 2.10683 3.44357 2.48698C3.22599 2.86763 3.34553 3.3783 3.73668 3.60639Z" fill="#0E2E4A" stroke="#0E2E4A"/>
<path d="M31.0204 19.3603L33.8454 20.99C33.9759 21.066 34.117 21.0985 34.2475 21.0985C34.5301 21.0985 34.8017 20.9574 34.9538 20.6858C35.1819 20.2947 35.0408 19.795 34.6607 19.5774L31.8357 17.9478C31.4446 17.7197 30.9449 17.8607 30.7273 18.2409C30.4987 18.6325 30.6403 19.1322 31.0204 19.3603Z" fill="#0E2E4A" stroke="#0E2E4A"/>
</svg>
