<svg width="44" height="44" viewBox="0 0 44 44" fill="none" xmlns="http://www.w3.org/2000/svg">
<path d="M42.2505 1.74111C41.1318 0.626087 39.617 0 38.038 0C36.4589 0 34.9442 0.626157 33.8259 1.74111L15.3255 20.2168C15.014 20.5284 14.8379 20.9501 14.8359 21.3904V27.3916C14.8359 27.8343 15.0116 28.2583 15.3247 28.5714C15.6373 28.8845 16.0617 29.0602 16.5043 29.0602L22.6213 29.1436C23.0534 29.1417 23.468 28.9721 23.7779 28.6707L42.2506 10.1841C43.3689 9.06407 43.9973 7.54603 43.9973 5.96273C43.9973 4.37984 43.3689 2.86139 42.2506 1.74141L42.2505 1.74111ZM39.8925 7.8258L21.9144 25.801L18.172 25.7509V22.0913L36.172 4.09927C36.6654 3.60579 37.3345 3.32841 38.0322 3.32841C38.73 3.32841 39.3992 3.6058 39.8921 4.09927C40.3859 4.59353 40.6632 5.26355 40.6632 5.96224C40.6632 6.66095 40.3859 7.33131 39.8921 7.82561L39.8925 7.8258Z" fill="#0E2E4A"/>
<path d="M5.00495 44.0001H36.3339C37.6612 44.0001 38.9343 43.4728 39.8726 42.534C40.8113 41.5955 41.3385 40.3222 41.3385 38.9946V23.3325C41.3385 22.7362 41.0208 22.1853 40.5045 21.8874C39.9883 21.5894 39.3525 21.5894 38.8362 21.8874C38.3199 22.1853 38.0022 22.7362 38.0022 23.3325V38.9946C38.0022 39.4369 37.8265 39.8613 37.5135 40.1744C37.2005 40.4871 36.7765 40.6632 36.3339 40.6632H5.00498C4.56241 40.6632 4.13805 40.4871 3.82541 40.1744C3.51239 39.8613 3.33667 39.4369 3.33667 38.9946V7.66544C3.33667 7.22279 3.51238 6.79875 3.82541 6.48567C4.13804 6.17259 4.5624 5.99685 5.00498 5.99685H20.6695C21.2656 5.99685 21.8165 5.67911 22.1144 5.16275C22.4123 4.64639 22.4123 4.01049 22.1144 3.49414C21.8165 2.9778 21.2657 2.66005 20.6695 2.66005H5.00498C3.67765 2.66005 2.40453 3.18728 1.46586 4.12615C0.527557 5.06461 0 6.33792 0 7.66547V38.9947C0 40.3222 0.527527 41.5956 1.46586 42.534C2.40454 43.4728 3.67752 44.0001 5.00495 44.0001Z" fill="#0E2E4A"/>
</svg>
