<svg width="46" height="46" viewBox="0 0 46 46" fill="none" xmlns="http://www.w3.org/2000/svg">
<path d="M41.8654 34.2985C43.8529 30.9907 45 27.1247 45 23C45 18.8753 43.8532 15.0012 41.8654 11.7015C41.8654 11.6938 41.8577 11.6857 41.8497 11.678C38.0004 5.28996 30.9926 1 22.996 1C14.9989 1 8.00727 5.28233 4.15034 11.678C4.15034 11.6857 4.14263 11.6938 4.13456 11.7015C2.14711 15.0093 1 18.8753 1 23C1 27.1247 2.14675 30.9988 4.13456 34.2985C4.13456 34.3062 4.14228 34.3143 4.15034 34.322C7.99964 40.71 15.0074 45 23.004 45C31.0007 45 38.0008 40.7177 41.8577 34.322C41.8577 34.3143 41.8655 34.3062 41.8735 34.2985H41.8654ZM2.60306 23.7857H7.30877C7.39504 27.1802 8.03156 30.3782 9.09978 33.2146H5.32904C3.71094 30.4176 2.72893 27.2114 2.60306 23.7857ZM5.32904 12.7854H9.09978C8.03158 15.6218 7.39505 18.8198 7.30877 22.2143H2.60306C2.73668 18.7886 3.71058 15.5824 5.32904 12.7854ZM43.4135 22.2143H38.7078C38.6215 18.8198 37.985 15.6218 36.9168 12.7854H40.6875C42.3056 15.5824 43.2876 18.7886 43.4135 22.2143ZM37.1367 22.2143H30.8598C30.8205 18.9927 30.5298 15.7477 30.0034 12.7854H35.2509C36.3742 15.5824 37.05 18.7886 37.1363 22.2143H37.1367ZM16.7352 22.2143C16.7744 18.702 17.1045 15.5197 17.6151 12.7854H28.4093C28.9199 15.5197 29.2499 18.702 29.2892 22.2143H16.7352ZM29.2881 23.7857C29.2489 27.298 28.9188 30.4803 28.4082 33.2146H17.614C17.1034 30.4803 16.7734 27.298 16.7341 23.7857H29.2881ZM29.6967 11.2139C28.982 7.90605 27.9526 5.08511 26.6253 3.2463C29.8696 4.48768 32.6584 7.35568 34.5518 11.2139H29.6967ZM28.0862 11.2139H17.9447C19.1781 5.83924 21.1656 2.57074 23.0194 2.57074C24.8731 2.57074 26.8609 5.83924 28.094 11.2139H28.0862ZM19.3903 3.2463C18.0548 5.08511 17.0259 7.90569 16.3188 11.2139H11.4641C13.3572 7.35603 16.1459 4.48813 19.3906 3.2463H19.3903ZM16.0046 12.7856C15.4782 15.7479 15.1875 18.993 15.1482 22.2145H8.87135C8.95762 18.7889 9.64114 15.5827 10.7567 12.7856H16.0046ZM8.87172 23.786H15.1486C15.1878 27.0075 15.4786 30.2526 16.005 33.2149H10.7575C9.63414 30.4178 8.95837 27.2117 8.87209 23.786H8.87172ZM16.3111 34.7864C17.0258 38.0942 18.0552 40.9152 19.3826 42.754C16.1382 41.5126 13.3495 38.6446 11.456 34.7864H16.3111ZM17.9216 34.7864H28.0631C26.8297 40.161 24.8422 43.4295 22.9885 43.4295C21.1347 43.4295 19.1469 40.161 17.9139 34.7864H17.9216ZM26.6022 42.754C27.9377 40.9152 28.9666 38.0946 29.6736 34.7864H34.5284C32.6353 38.6442 29.8465 41.5121 26.6018 42.754H26.6022ZM29.9879 33.2146C30.5143 30.2523 30.805 27.0073 30.8443 23.7857H37.1211C37.0348 27.2114 36.3513 30.4176 35.2358 33.2146H29.9879ZM38.6919 23.7857H43.3976C43.264 27.2114 42.2901 30.4176 40.6716 33.2146H36.9009C37.9691 30.3782 38.6056 27.1802 38.6919 23.7857ZM39.6662 11.2139H36.2566C34.9997 8.44027 33.3108 6.09077 31.3152 4.34633C34.6774 5.85505 37.5529 8.2357 39.6658 11.2139H39.6662ZM14.685 4.34633C12.6976 6.09077 11.0087 8.43991 9.74366 11.2139H6.3341C8.43934 8.24388 11.3224 5.85505 14.6847 4.34633H14.685ZM6.33446 34.7864H9.74402C11.0009 37.56 12.6899 39.9095 14.6854 41.6539C11.3232 40.1452 8.44778 37.7646 6.33482 34.7864H6.33446ZM31.3237 41.6539C33.3111 39.9095 35.0001 37.5604 36.2651 34.7864H39.6746C37.5694 37.7564 34.6863 40.1452 31.324 41.6539H31.3237Z" fill="#0E2E4A" stroke="#0E2E4A"/>
</svg>
