<svg width="18" height="14" viewBox="0 0 18 14" fill="none" xmlns="http://www.w3.org/2000/svg">
<path d="M9.5918 3.57306C9.5918 5.19846 10.8635 6.5205 12.4264 6.5205C13.9892 6.5205 15.2604 5.19846 15.2604 3.57306C15.2604 1.94765 13.9892 0.625 12.4264 0.625C10.8635 0.625 9.5918 1.94765 9.5918 3.57306Z" fill="#00FFFA"/>
<path d="M12.4308 7.46875C11.8586 7.46875 11.312 7.56433 10.8057 7.75239C10.4897 7.86955 10.3248 8.23089 10.4381 8.55893C10.5501 8.88697 10.8958 9.05901 11.2136 8.94124C11.353 8.88967 11.5017 8.85734 11.65 8.82466C11.9009 8.76943 12.1592 8.73159 12.4308 8.73159C13.4624 8.73159 14.4306 9.14842 15.1581 9.9044C15.7762 10.5478 16.1556 11.3734 16.2562 12.2656C16.2739 12.4226 16.2857 12.5809 16.2857 12.7415C16.2857 13.0905 16.5573 13.3729 16.8928 13.3729C17.2284 13.3729 17.5 13.0905 17.5 12.7415C17.5 11.3313 16.9729 10.0061 16.0166 9.01153C15.0602 8.01692 13.7867 7.46875 12.4308 7.46875Z" fill="#00FFFA"/>
<path d="M2.73535 3.57306C2.73535 5.19846 4.0065 6.5205 5.56935 6.5205C7.1322 6.5205 8.40394 5.19846 8.40394 3.57306C8.40394 1.94765 7.1322 0.625 5.56935 0.625C4.0065 0.625 2.73535 1.94765 2.73535 3.57306Z" fill="#00FFFA"/>
<path d="M1.10712 13.3753C1.44269 13.3753 1.71423 13.0929 1.71423 12.7439C1.71423 12.7439 1.71423 12.744 1.71423 12.7439C1.71438 10.5316 3.44494 8.73159 5.57155 8.73159C7.69876 8.73159 9.42932 10.5313 9.42947 12.7437C9.42947 12.7436 9.42947 12.7438 9.42947 12.7437C9.42947 13.0927 9.70101 13.3753 10.0366 13.3753C10.3722 13.3753 10.6437 13.0929 10.6437 12.7439C10.6437 9.83533 8.3682 7.46875 5.57155 7.46875C2.77491 7.46875 0.5 9.83533 0.5 12.7439C0.5 13.0929 0.771542 13.3753 1.10712 13.3753Z" fill="#00FFFA"/>
</svg>
